<svg xmlns="http://www.w3.org/2000/svg" xmlns:xlink="http://www.w3.org/1999/xlink" width="77" zoomAndPan="magnify" viewBox="0 0 57.75 57.749997" height="77" preserveAspectRatio="xMidYMid meet" version="1.0"><defs><clipPath id="6287875e78"><path d="M 0 0 L 57.5 0 L 57.5 57.5 L 0 57.5 Z M 0 0 " clip-rule="nonzero"/></clipPath><clipPath id="e464b298f5"><path d="M 0 0 L 57.351562 0 L 57.351562 57.351562 L 0 57.351562 Z M 0 0 " clip-rule="nonzero"/></clipPath><clipPath id="004409fd0c"><rect x="0" width="58" y="0" height="58"/></clipPath></defs><g clip-path="url(#6287875e78)"><path fill="#ffffff" d="M 0 0 L 57.5 0 L 57.5 57.5 L 0 57.5 Z M 0 0 " fill-opacity="1" fill-rule="nonzero"/><g transform="matrix(1, 0, 0, 1, 0, 0.000000000000003457)"><g clip-path="url(#004409fd0c)"><g clip-path="url(#e464b298f5)"><path fill="#ffd28f" d="M 0 0 L 57.351562 0 L 57.351562 57.351562 L 0 57.351562 Z M 0 0 " fill-opacity="1" fill-rule="nonzero"/></g><path stroke-linecap="butt" transform="matrix(2.294069, 0, 0, 2.294069, 0.0000015, -0.00000099569)" fill-opacity="1" fill="#ffd28f" fill-rule="nonzero" stroke-linejoin="miter" d="M 2.000743 2.499653 L 9.000792 2.499653 M 10.999833 2.499653 L 11.999353 2.499653 M 13.000576 2.499653 L 14.000097 2.499653 M 16.000841 2.499653 L 22.999187 2.499653 M 2.000743 3.499173 L 3.000263 3.499173 M 7.999569 3.499173 L 9.000792 3.499173 M 11.999353 3.499173 L 13.000576 3.499173 M 16.000841 3.499173 L 17.000361 3.499173 M 21.999666 3.499173 L 22.999187 3.499173 M 2.000743 4.500397 L 3.000263 4.500397 M 3.999784 4.500397 L 7.000048 4.500397 M 7.999569 4.500397 L 9.000792 4.500397 M 10.000312 4.500397 L 11.999353 4.500397 M 16.000841 4.500397 L 17.000361 4.500397 M 17.999881 4.500397 L 21.000146 4.500397 M 21.999666 4.500397 L 22.999187 4.500397 M 2.000743 5.499917 L 3.000263 5.499917 M 3.999784 5.499917 L 7.000048 5.499917 M 7.999569 5.499917 L 9.000792 5.499917 M 10.000312 5.499917 L 14.999617 5.499917 M 16.000841 5.499917 L 17.000361 5.499917 M 17.999881 5.499917 L 21.000146 5.499917 M 21.999666 5.499917 L 22.999187 5.499917 M 2.000743 6.499438 L 3.000263 6.499438 M 3.999784 6.499438 L 7.000048 6.499438 M 7.999569 6.499438 L 9.000792 6.499438 M 10.000312 6.499438 L 11.999353 6.499438 M 14.000097 6.499438 L 14.999617 6.499438 M 16.000841 6.499438 L 17.000361 6.499438 M 17.999881 6.499438 L 21.000146 6.499438 M 21.999666 6.499438 L 22.999187 6.499438 M 2.000743 7.500661 L 3.000263 7.500661 M 7.999569 7.500661 L 9.000792 7.500661 M 10.000312 7.500661 L 10.999833 7.500661 M 13.000576 7.500661 L 14.000097 7.500661 M 16.000841 7.500661 L 17.000361 7.500661 M 21.999666 7.500661 L 22.999187 7.500661 M 2.000743 8.500181 L 9.000792 8.500181 M 10.000312 8.500181 L 10.999833 8.500181 M 11.999353 8.500181 L 13.000576 8.500181 M 14.000097 8.500181 L 14.999617 8.500181 M 16.000841 8.500181 L 22.999187 8.500181 M 10.000312 9.499702 L 11.999353 9.499702 M 2.000743 10.499222 L 3.000263 10.499222 M 3.999784 10.499222 L 9.000792 10.499222 M 13.000576 10.499222 L 14.000097 10.499222 M 16.000841 10.499222 L 21.000146 10.499222 M 2.000743 11.500445 L 4.999304 11.500445 M 9.000792 11.500445 L 10.000312 11.500445 M 11.999353 11.500445 L 16.000841 11.500445 M 17.000361 11.500445 L 20.000625 11.500445 M 21.999666 11.500445 L 22.999187 11.500445 M 3.000263 12.499966 L 3.999784 12.499966 M 4.999304 12.499966 L 9.000792 12.499966 M 10.000312 12.499966 L 11.999353 12.499966 M 14.000097 12.499966 L 16.000841 12.499966 M 20.000625 12.499966 L 21.999666 12.499966 M 2.000743 13.499486 L 3.000263 13.499486 M 4.999304 13.499486 L 6.000528 13.499486 M 9.000792 13.499486 L 10.000312 13.499486 M 10.999833 13.499486 L 11.999353 13.499486 M 13.000576 13.499486 L 16.000841 13.499486 M 17.000361 13.499486 L 17.999881 13.499486 M 18.999402 13.499486 L 21.000146 13.499486 M 21.999666 13.499486 L 22.999187 13.499486 M 2.000743 14.50071 L 4.999304 14.50071 M 7.999569 14.50071 L 9.000792 14.50071 M 10.999833 14.50071 L 11.999353 14.50071 M 14.000097 14.50071 L 17.000361 14.50071 M 10.000312 15.50023 L 11.999353 15.50023 M 14.000097 15.50023 L 16.000841 15.50023 M 17.000361 15.50023 L 20.000625 15.50023 M 21.999666 15.50023 L 22.999187 15.50023 M 2.000743 16.49975 L 9.000792 16.49975 M 10.999833 16.49975 L 14.000097 16.49975 M 16.000841 16.49975 L 17.000361 16.49975 M 18.999402 16.49975 L 20.000625 16.49975 M 21.000146 16.49975 L 21.999666 16.49975 M 2.000743 17.499271 L 3.000263 17.499271 M 7.999569 17.499271 L 9.000792 17.499271 M 10.000312 17.499271 L 13.000576 17.499271 M 17.000361 17.499271 L 21.999666 17.499271 M 2.000743 18.500494 L 3.000263 18.500494 M 3.999784 18.500494 L 7.000048 18.500494 M 7.999569 18.500494 L 9.000792 18.500494 M 10.000312 18.500494 L 14.000097 18.500494 M 17.999881 18.500494 L 18.999402 18.500494 M 21.999666 18.500494 L 22.999187 18.500494 M 2.000743 19.500015 L 3.000263 19.500015 M 3.999784 19.500015 L 7.000048 19.500015 M 7.999569 19.500015 L 9.000792 19.500015 M 10.000312 19.500015 L 10.999833 19.500015 M 11.999353 19.500015 L 20.000625 19.500015 M 2.000743 20.499535 L 3.000263 20.499535 M 3.999784 20.499535 L 7.000048 20.499535 M 7.999569 20.499535 L 9.000792 20.499535 M 10.000312 20.499535 L 10.999833 20.499535 M 14.000097 20.499535 L 14.999617 20.499535 M 16.000841 20.499535 L 17.999881 20.499535 M 2.000743 21.500758 L 3.000263 21.500758 M 7.999569 21.500758 L 9.000792 21.500758 M 13.000576 21.500758 L 17.000361 21.500758 M 17.999881 21.500758 L 21.000146 21.500758 M 2.000743 22.500279 L 9.000792 22.500279 M 10.000312 22.500279 L 10.999833 22.500279 M 14.000097 22.500279 L 14.999617 22.500279 M 21.000146 22.500279 L 21.999666 22.500279 " stroke="#000000" stroke-width="1" stroke-opacity="1" stroke-miterlimit="4"/></g></g></g></svg>