<svg xmlns="http://www.w3.org/2000/svg" xmlns:xlink="http://www.w3.org/1999/xlink" width="77" zoomAndPan="magnify" viewBox="0 0 57.75 57.749997" height="77" preserveAspectRatio="xMidYMid meet" version="1.0"><defs><clipPath id="a7dfb7dd5b"><path d="M 0 0 L 57.5 0 L 57.5 57.5 L 0 57.5 Z M 0 0 " clip-rule="nonzero"/></clipPath><clipPath id="39ce25dadf"><path d="M 0 0 L 57.351562 0 L 57.351562 57.351562 L 0 57.351562 Z M 0 0 " clip-rule="nonzero"/></clipPath><clipPath id="e3088b4070"><rect x="0" width="58" y="0" height="58"/></clipPath></defs><g clip-path="url(#a7dfb7dd5b)"><path fill="#ffffff" d="M 0 0 L 57.5 0 L 57.5 57.5 L 0 57.5 Z M 0 0 " fill-opacity="1" fill-rule="nonzero"/><g transform="matrix(1, 0, 0, 1, 0, 0.000000000000003457)"><g clip-path="url(#e3088b4070)"><g clip-path="url(#39ce25dadf)"><path fill="#fdf7f1" d="M 0 0 L 57.351562 0 L 57.351562 57.351562 L 0 57.351562 Z M 0 0 " fill-opacity="1" fill-rule="nonzero"/></g><path stroke-linecap="butt" transform="matrix(1.550047, 0, 0, 1.550047, 0.0000015, -0.00000099569)" fill-opacity="1" fill="#fdf7f1" fill-rule="nonzero" stroke-linejoin="miter" d="M 2.000947 2.499926 L 8.999225 2.499926 M 13.999075 2.499926 L 14.999549 2.499926 M 18.00097 2.499926 L 18.998924 2.499926 M 19.999398 2.499926 L 23.998774 2.499926 M 24.999248 2.499926 L 25.999722 2.499926 M 28.00067 2.499926 L 34.998948 2.499926 M 2.000947 3.5004 L 2.998901 3.5004 M 7.998751 3.5004 L 8.999225 3.5004 M 11.000173 3.5004 L 13.001121 3.5004 M 17.000497 3.5004 L 18.00097 3.5004 M 19.999398 3.5004 L 20.999872 3.5004 M 22.000346 3.5004 L 23.00082 3.5004 M 25.999722 3.5004 L 27.000196 3.5004 M 28.00067 3.5004 L 29.001144 3.5004 M 34.000994 3.5004 L 34.998948 3.5004 M 2.000947 4.500874 L 2.998901 4.500874 M 3.999375 4.500874 L 7.000797 4.500874 M 7.998751 4.500874 L 8.999225 4.500874 M 9.999699 4.500874 L 12.000647 4.500874 M 13.001121 4.500874 L 14.999549 4.500874 M 16.000023 4.500874 L 18.998924 4.500874 M 20.999872 4.500874 L 25.999722 4.500874 M 28.00067 4.500874 L 29.001144 4.500874 M 29.999098 4.500874 L 33.00052 4.500874 M 34.000994 4.500874 L 34.998948 4.500874 M 2.000947 5.498827 L 2.998901 5.498827 M 3.999375 5.498827 L 7.000797 5.498827 M 7.998751 5.498827 L 8.999225 5.498827 M 9.999699 5.498827 L 11.000173 5.498827 M 12.000647 5.498827 L 13.001121 5.498827 M 13.999075 5.498827 L 14.999549 5.498827 M 19.999398 5.498827 L 22.000346 5.498827 M 23.998774 5.498827 L 25.999722 5.498827 M 28.00067 5.498827 L 29.001144 5.498827 M 29.999098 5.498827 L 33.00052 5.498827 M 34.000994 5.498827 L 34.998948 5.498827 M 2.000947 6.499301 L 2.998901 6.499301 M 3.999375 6.499301 L 7.000797 6.499301 M 7.998751 6.499301 L 8.999225 6.499301 M 9.999699 6.499301 L 11.000173 6.499301 M 13.999075 6.499301 L 18.998924 6.499301 M 22.000346 6.499301 L 25.999722 6.499301 M 28.00067 6.499301 L 29.001144 6.499301 M 29.999098 6.499301 L 33.00052 6.499301 M 34.000994 6.499301 L 34.998948 6.499301 M 2.000947 7.499775 L 2.998901 7.499775 M 7.998751 7.499775 L 8.999225 7.499775 M 9.999699 7.499775 L 12.000647 7.499775 M 14.999549 7.499775 L 17.000497 7.499775 M 18.998924 7.499775 L 22.000346 7.499775 M 23.00082 7.499775 L 24.999248 7.499775 M 28.00067 7.499775 L 29.001144 7.499775 M 34.000994 7.499775 L 34.998948 7.499775 M 2.000947 8.500249 L 8.999225 8.500249 M 9.999699 8.500249 L 11.000173 8.500249 M 12.000647 8.500249 L 13.001121 8.500249 M 13.999075 8.500249 L 14.999549 8.500249 M 16.000023 8.500249 L 17.000497 8.500249 M 18.00097 8.500249 L 18.998924 8.500249 M 19.999398 8.500249 L 20.999872 8.500249 M 22.000346 8.500249 L 23.00082 8.500249 M 23.998774 8.500249 L 24.999248 8.500249 M 25.999722 8.500249 L 27.000196 8.500249 M 28.00067 8.500249 L 34.998948 8.500249 M 9.999699 9.500723 L 13.999075 9.500723 M 16.000023 9.500723 L 17.000497 9.500723 M 18.00097 9.500723 L 18.998924 9.500723 M 19.999398 9.500723 L 23.998774 9.500723 M 2.000947 10.501197 L 2.998901 10.501197 M 3.999375 10.501197 L 8.999225 10.501197 M 11.000173 10.501197 L 12.000647 10.501197 M 13.001121 10.501197 L 13.999075 10.501197 M 14.999549 10.501197 L 17.000497 10.501197 M 18.998924 10.501197 L 19.999398 10.501197 M 20.999872 10.501197 L 22.000346 10.501197 M 23.998774 10.501197 L 24.999248 10.501197 M 25.999722 10.501197 L 27.000196 10.501197 M 28.00067 10.501197 L 33.00052 10.501197 M 2.000947 11.499151 L 4.999849 11.499151 M 6.000323 11.499151 L 7.998751 11.499151 M 8.999225 11.499151 L 9.999699 11.499151 M 13.001121 11.499151 L 16.000023 11.499151 M 18.00097 11.499151 L 19.999398 11.499151 M 20.999872 11.499151 L 22.000346 11.499151 M 23.00082 11.499151 L 23.998774 11.499151 M 24.999248 11.499151 L 25.999722 11.499151 M 28.00067 11.499151 L 29.999098 11.499151 M 30.999572 11.499151 L 34.998948 11.499151 M 2.000947 12.499625 L 2.998901 12.499625 M 3.999375 12.499625 L 4.999849 12.499625 M 6.000323 12.499625 L 7.000797 12.499625 M 7.998751 12.499625 L 8.999225 12.499625 M 11.000173 12.499625 L 12.000647 12.499625 M 14.999549 12.499625 L 18.00097 12.499625 M 18.998924 12.499625 L 19.999398 12.499625 M 22.000346 12.499625 L 23.00082 12.499625 M 27.000196 12.499625 L 28.00067 12.499625 M 29.999098 12.499625 L 30.999572 12.499625 M 32.000046 12.499625 L 34.000994 12.499625 M 2.000947 13.500099 L 2.998901 13.500099 M 3.999375 13.500099 L 4.999849 13.500099 M 9.999699 13.500099 L 12.000647 13.500099 M 13.999075 13.500099 L 16.000023 13.500099 M 18.00097 13.500099 L 20.999872 13.500099 M 22.000346 13.500099 L 24.999248 13.500099 M 27.000196 13.500099 L 28.00067 13.500099 M 29.999098 13.500099 L 34.998948 13.500099 M 2.998901 14.500573 L 4.999849 14.500573 M 6.000323 14.500573 L 8.999225 14.500573 M 9.999699 14.500573 L 11.000173 14.500573 M 16.000023 14.500573 L 17.000497 14.500573 M 18.00097 14.500573 L 18.998924 14.500573 M 20.999872 14.500573 L 23.00082 14.500573 M 23.998774 14.500573 L 24.999248 14.500573 M 25.999722 14.500573 L 28.00067 14.500573 M 29.001144 14.500573 L 32.000046 14.500573 M 33.00052 14.500573 L 34.998948 14.500573 M 2.000947 15.501047 L 2.998901 15.501047 M 3.999375 15.501047 L 7.998751 15.501047 M 8.999225 15.501047 L 12.000647 15.501047 M 13.999075 15.501047 L 14.999549 15.501047 M 17.000497 15.501047 L 18.00097 15.501047 M 19.999398 15.501047 L 20.999872 15.501047 M 24.999248 15.501047 L 25.999722 15.501047 M 28.00067 15.501047 L 29.001144 15.501047 M 32.000046 15.501047 L 34.998948 15.501047 M 2.000947 16.499001 L 6.000323 16.499001 M 7.998751 16.499001 L 12.000647 16.499001 M 13.999075 16.499001 L 20.999872 16.499001 M 22.000346 16.499001 L 24.999248 16.499001 M 27.000196 16.499001 L 29.999098 16.499001 M 30.999572 16.499001 L 32.000046 16.499001 M 33.00052 16.499001 L 34.000994 16.499001 M 2.000947 17.499475 L 2.998901 17.499475 M 11.000173 17.499475 L 12.000647 17.499475 M 13.001121 17.499475 L 14.999549 17.499475 M 17.000497 17.499475 L 18.00097 17.499475 M 19.999398 17.499475 L 20.999872 17.499475 M 23.00082 17.499475 L 23.998774 17.499475 M 24.999248 17.499475 L 29.001144 17.499475 M 30.999572 17.499475 L 33.00052 17.499475 M 2.998901 18.499949 L 7.000797 18.499949 M 7.998751 18.499949 L 8.999225 18.499949 M 9.999699 18.499949 L 12.000647 18.499949 M 13.001121 18.499949 L 13.999075 18.499949 M 16.000023 18.499949 L 18.00097 18.499949 M 18.998924 18.499949 L 19.999398 18.499949 M 23.998774 18.499949 L 24.999248 18.499949 M 25.999722 18.499949 L 28.00067 18.499949 M 29.001144 18.499949 L 32.000046 18.499949 M 34.000994 18.499949 L 34.998948 18.499949 M 2.000947 19.500423 L 2.998901 19.500423 M 3.999375 19.500423 L 4.999849 19.500423 M 6.000323 19.500423 L 7.998751 19.500423 M 9.999699 19.500423 L 12.000647 19.500423 M 13.999075 19.500423 L 17.000497 19.500423 M 18.00097 19.500423 L 18.998924 19.500423 M 19.999398 19.500423 L 23.00082 19.500423 M 23.998774 19.500423 L 25.999722 19.500423 M 28.00067 19.500423 L 29.999098 19.500423 M 30.999572 19.500423 L 33.00052 19.500423 M 34.000994 19.500423 L 34.998948 19.500423 M 2.000947 20.500897 L 2.998901 20.500897 M 3.999375 20.500897 L 7.000797 20.500897 M 7.998751 20.500897 L 8.999225 20.500897 M 11.000173 20.500897 L 12.000647 20.500897 M 13.999075 20.500897 L 14.999549 20.500897 M 17.000497 20.500897 L 18.998924 20.500897 M 19.999398 20.500897 L 20.999872 20.500897 M 22.000346 20.500897 L 23.998774 20.500897 M 25.999722 20.500897 L 28.00067 20.500897 M 29.001144 20.500897 L 30.999572 20.500897 M 32.000046 20.500897 L 33.00052 20.500897 M 2.000947 21.498851 L 4.999849 21.498851 M 6.000323 21.498851 L 7.998751 21.498851 M 8.999225 21.498851 L 13.999075 21.498851 M 18.00097 21.498851 L 18.998924 21.498851 M 20.999872 21.498851 L 24.999248 21.498851 M 27.000196 21.498851 L 34.998948 21.498851 M 2.000947 22.499325 L 2.998901 22.499325 M 3.999375 22.499325 L 7.000797 22.499325 M 7.998751 22.499325 L 8.999225 22.499325 M 13.001121 22.499325 L 14.999549 22.499325 M 16.000023 22.499325 L 17.000497 22.499325 M 19.999398 22.499325 L 22.000346 22.499325 M 23.998774 22.499325 L 25.999722 22.499325 M 27.000196 22.499325 L 28.00067 22.499325 M 29.999098 22.499325 L 32.000046 22.499325 M 33.00052 22.499325 L 34.000994 22.499325 M 2.000947 23.499799 L 6.000323 23.499799 M 7.000797 23.499799 L 7.998751 23.499799 M 8.999225 23.499799 L 11.000173 23.499799 M 12.000647 23.499799 L 13.001121 23.499799 M 14.999549 23.499799 L 16.000023 23.499799 M 17.000497 23.499799 L 18.998924 23.499799 M 22.000346 23.499799 L 23.00082 23.499799 M 24.999248 23.499799 L 25.999722 23.499799 M 27.000196 23.499799 L 29.001144 23.499799 M 30.999572 23.499799 L 33.00052 23.499799 M 34.000994 23.499799 L 34.998948 23.499799 M 2.000947 24.500273 L 2.998901 24.500273 M 4.999849 24.500273 L 6.000323 24.500273 M 7.000797 24.500273 L 12.000647 24.500273 M 19.999398 24.500273 L 22.000346 24.500273 M 23.00082 24.500273 L 23.998774 24.500273 M 32.000046 24.500273 L 34.000994 24.500273 M 2.000947 25.500747 L 2.998901 25.500747 M 7.000797 25.500747 L 7.998751 25.500747 M 8.999225 25.500747 L 9.999699 25.500747 M 11.000173 25.500747 L 13.001121 25.500747 M 13.999075 25.500747 L 14.999549 25.500747 M 16.000023 25.500747 L 17.000497 25.500747 M 18.00097 25.500747 L 18.998924 25.500747 M 20.999872 25.500747 L 24.999248 25.500747 M 27.000196 25.500747 L 29.999098 25.500747 M 30.999572 25.500747 L 34.000994 25.500747 M 2.000947 26.501221 L 2.998901 26.501221 M 7.000797 26.501221 L 8.999225 26.501221 M 13.001121 26.501221 L 17.000497 26.501221 M 18.998924 26.501221 L 19.999398 26.501221 M 20.999872 26.501221 L 22.000346 26.501221 M 24.999248 26.501221 L 32.000046 26.501221 M 9.999699 27.499175 L 11.000173 27.499175 M 12.000647 27.499175 L 13.001121 27.499175 M 13.999075 27.499175 L 16.000023 27.499175 M 18.00097 27.499175 L 23.00082 27.499175 M 25.999722 27.499175 L 27.000196 27.499175 M 29.999098 27.499175 L 30.999572 27.499175 M 32.000046 27.499175 L 33.00052 27.499175 M 34.000994 27.499175 L 34.998948 27.499175 M 2.000947 28.499649 L 8.999225 28.499649 M 11.000173 28.499649 L 13.999075 28.499649 M 14.999549 28.499649 L 18.00097 28.499649 M 18.998924 28.499649 L 19.999398 28.499649 M 22.000346 28.499649 L 23.00082 28.499649 M 23.998774 28.499649 L 27.000196 28.499649 M 28.00067 28.499649 L 29.001144 28.499649 M 29.999098 28.499649 L 30.999572 28.499649 M 32.000046 28.499649 L 34.000994 28.499649 M 2.000947 29.500123 L 2.998901 29.500123 M 7.998751 29.500123 L 8.999225 29.500123 M 9.999699 29.500123 L 11.000173 29.500123 M 13.999075 29.500123 L 14.999549 29.500123 M 17.000497 29.500123 L 22.000346 29.500123 M 23.00082 29.500123 L 27.000196 29.500123 M 29.999098 29.500123 L 33.00052 29.500123 M 34.000994 29.500123 L 34.998948 29.500123 M 2.000947 30.500597 L 2.998901 30.500597 M 3.999375 30.500597 L 7.000797 30.500597 M 7.998751 30.500597 L 8.999225 30.500597 M 9.999699 30.500597 L 11.000173 30.500597 M 13.999075 30.500597 L 14.999549 30.500597 M 17.000497 30.500597 L 18.998924 30.500597 M 23.998774 30.500597 L 24.999248 30.500597 M 25.999722 30.500597 L 32.000046 30.500597 M 33.00052 30.500597 L 34.998948 30.500597 M 2.000947 31.501071 L 2.998901 31.501071 M 3.999375 31.501071 L 7.000797 31.501071 M 7.998751 31.501071 L 8.999225 31.501071 M 9.999699 31.501071 L 16.000023 31.501071 M 17.000497 31.501071 L 18.00097 31.501071 M 19.999398 31.501071 L 20.999872 31.501071 M 24.999248 31.501071 L 28.00067 31.501071 M 29.999098 31.501071 L 30.999572 31.501071 M 32.000046 31.501071 L 34.998948 31.501071 M 2.000947 32.499025 L 2.998901 32.499025 M 3.999375 32.499025 L 7.000797 32.499025 M 7.998751 32.499025 L 8.999225 32.499025 M 9.999699 32.499025 L 13.001121 32.499025 M 14.999549 32.499025 L 18.998924 32.499025 M 23.998774 32.499025 L 24.999248 32.499025 M 25.999722 32.499025 L 27.000196 32.499025 M 28.00067 32.499025 L 29.999098 32.499025 M 2.000947 33.499499 L 2.998901 33.499499 M 7.998751 33.499499 L 8.999225 33.499499 M 13.999075 33.499499 L 14.999549 33.499499 M 17.000497 33.499499 L 18.00097 33.499499 M 20.999872 33.499499 L 23.998774 33.499499 M 28.00067 33.499499 L 29.001144 33.499499 M 29.999098 33.499499 L 33.00052 33.499499 M 2.000947 34.499973 L 8.999225 34.499973 M 9.999699 34.499973 L 12.000647 34.499973 M 13.001121 34.499973 L 13.999075 34.499973 M 16.000023 34.499973 L 18.00097 34.499973 M 18.998924 34.499973 L 19.999398 34.499973 M 20.999872 34.499973 L 22.000346 34.499973 M 23.998774 34.499973 L 24.999248 34.499973 M 25.999722 34.499973 L 28.00067 34.499973 M 29.001144 34.499973 L 29.999098 34.499973 M 33.00052 34.499973 L 34.000994 34.499973 " stroke="#000000" stroke-width="1" stroke-opacity="1" stroke-miterlimit="4"/></g></g></g></svg>